<svg width="24" height="24" viewBox="0 0 24 24" fill="none" xmlns="http://www.w3.org/2000/svg">
<g id="star-sharp_svgrepo.com">
<path id="Vector" d="M11.2475 4.20196C11.478 3.50659 11.5932 3.15891 11.7637 3.06255C11.9112 2.97915 12.0888 2.97915 12.2364 3.06255C12.4067 3.15891 12.522 3.50659 12.7525 4.20196L14.2764 8.79908C14.342 8.99699 14.3748 9.09594 14.4339 9.16963C14.4861 9.23473 14.5527 9.28547 14.6279 9.31742C14.713 9.3536 14.8128 9.35573 15.0126 9.36L19.6529 9.45916C20.3549 9.47416 20.7058 9.48167 20.8459 9.62186C20.9671 9.74318 21.022 9.92032 20.9919 10.0932C20.9573 10.293 20.6775 10.5153 20.1181 10.9601L16.4195 13.9004C16.2603 14.027 16.1807 14.0903 16.1321 14.172C16.0892 14.2442 16.0638 14.3263 16.058 14.4111C16.0515 14.5072 16.0804 14.6074 16.1383 14.808L17.4823 19.4664C17.6856 20.1711 17.7873 20.5234 17.7034 20.7063C17.6308 20.8648 17.4871 20.9742 17.321 20.9977C17.1291 21.0247 16.841 20.8145 16.2647 20.394L12.455 17.6142C12.291 17.4945 12.2091 17.4347 12.1199 17.4114C12.0412 17.3909 11.9588 17.3909 11.8801 17.4114C11.791 17.4347 11.709 17.4945 11.545 17.6142L7.73529 20.394C7.15903 20.8145 6.8709 21.0247 6.679 20.9977C6.51293 20.9742 6.36923 20.8648 6.29665 20.7063C6.21278 20.5234 6.31443 20.1711 6.51773 19.4664L7.86174 14.808C7.9196 14.6074 7.94852 14.5072 7.94201 14.4111C7.93626 14.3263 7.91082 14.2442 7.86791 14.172C7.81935 14.0903 7.73973 14.027 7.58051 13.9004L3.88199 10.9601C3.32254 10.5153 3.04281 10.293 3.00809 10.0932C2.97802 9.92032 3.03291 9.74318 3.15413 9.62186C3.29419 9.48167 3.64514 9.47417 4.34705 9.45916L8.98738 9.36C9.18715 9.35573 9.28704 9.3536 9.37214 9.31742C9.44731 9.28547 9.51392 9.23473 9.56613 9.16963C9.62524 9.09594 9.65804 8.99699 9.72365 8.79908L11.2475 4.20196Z" stroke="#F2F9FD" stroke-width="1.5" stroke-linecap="round" stroke-linejoin="round"/>
</g>
</svg>
