<svg width="24" height="24" viewBox="0 0 24 24" fill="none" xmlns="http://www.w3.org/2000/svg">
<g id="star-sharp_svgrepo.com">
<path id="Vector" d="M9.80985 13.1426C9.55639 12.9525 9.14534 12.9525 8.89177 13.1426L6.19015 15.1688C5.93662 15.359 5.93662 15.6672 6.19015 15.8574C6.31691 15.9524 6.48307 16 6.64919 16C6.81531 16 6.9815 15.9525 7.10823 15.8574L9.80989 13.8312C10.0634 13.6411 10.0634 13.3328 9.80985 13.1426Z" fill="#F2F9FD"/>
<path id="Vector_2" d="M20.8288 3.90484C20.2767 3.32134 19.5426 3 18.7619 3C17.9811 3 17.2471 3.32134 16.695 3.90488L15.3837 5.29081C14.7319 4.96262 13.9268 5.08294 13.3879 5.65258L9.59642 9.66002C8.94463 9.33184 8.13948 9.45219 7.60061 10.0218L3.5141 14.341C2.82867 15.0655 2.8286 16.2381 3.5141 16.9626L6.82117 20.458C7.50492 21.1806 8.61764 21.1807 9.30146 20.458L13.388 16.1387C13.9379 15.5575 14.0369 14.7037 13.731 14.0285L17.5218 10.0218C18.0717 9.4406 18.1706 8.58685 17.8648 7.91154L20.8289 4.77869C21.057 4.5375 21.0571 4.14611 20.8288 3.90484ZM12.5612 15.2648L8.47466 19.5841C8.24671 19.825 7.87581 19.825 7.64786 19.5841L4.34087 16.0887C4.11236 15.8471 4.11236 15.4564 4.34087 15.2148L8.42741 10.8956C8.65596 10.654 9.02566 10.654 9.25421 10.8956L12.5613 14.391C12.7897 14.6325 12.7896 15.0233 12.5612 15.2648ZM16.695 9.14794L12.9746 13.0802L10.4943 10.4587L14.2147 6.52639C14.4427 6.28553 14.8136 6.28549 15.0415 6.52639L16.695 8.27405C16.9234 8.51558 16.9235 8.90638 16.695 9.14794ZM17.1084 6.9633L16.2816 6.08945L17.5218 4.77865C17.853 4.42851 18.2934 4.23573 18.7619 4.23573C19.0281 4.23573 19.2852 4.29797 19.5184 4.41599L17.1084 6.9633Z" fill="#F2F9FD"/>
</g>
</svg>
