<svg width="63" height="64" viewBox="0 0 63 64" fill="none" xmlns="http://www.w3.org/2000/svg">
<g id="person_svgrepo.com" clip-path="url(#clip0_1208_25034)">
<g id="Group">
<path id="Vector" d="M44.7395 44.1366C42.2949 43.2226 38.7301 40.5535 38.7301 38.8919C38.7301 37.7911 38.7301 36.4158 38.7301 34.5308C40.1429 32.959 41.2171 29.7682 41.8556 26.151C43.3448 25.6194 44.1957 24.7686 45.2588 21.046C46.3888 17.0806 43.5572 17.2154 43.5572 17.2154C45.8476 9.63303 42.8325 2.50703 37.7821 3.03019C34.2986 -3.06409 22.6309 4.42232 18.975 3.90052C18.975 5.99056 19.8454 7.55757 19.8454 7.55757C18.5745 9.97052 19.0647 14.7818 19.4216 17.2154C19.2152 17.2117 16.6544 17.2384 17.7406 21.046C18.8038 24.7685 19.6547 25.6194 21.144 26.151C21.7812 29.7682 22.8554 32.959 24.2694 34.5308C24.2694 36.4158 24.2694 37.7911 24.2694 38.8919C24.2694 40.5535 20.4826 43.3525 18.2602 44.1366C13.6685 45.7533 2.38544 50.4031 3.11374 59.1131C3.28837 61.2032 14.7815 63.3722 31.4997 63.3722C48.2169 63.3722 59.7112 61.2032 59.886 59.1131C60.6141 50.3947 49.302 45.8432 44.7395 44.1366Z" fill="#F6F6F6"/>
</g>
</g>
<defs>
<clipPath id="clip0_1208_25034">
<rect width="62.7442" height="62.7442" fill="white" transform="translate(0.12793 0.62793)"/>
</clipPath>
</defs>
</svg>
