<svg width="24" height="24" viewBox="0 0 24 24" fill="none" xmlns="http://www.w3.org/2000/svg">
<g id="star-sharp_svgrepo.com">
<path id="Path 3402" d="M20.0009 14.7493C19.9543 13.2173 19.3665 11.7444 18.3318 10.5666C17.2971 9.38872 15.8753 8.57407 14.2941 8.25308C14.5994 7.96864 14.8417 7.62935 15.0069 7.25506C15.1721 6.88077 15.2568 6.479 15.2562 6.07328C15.2558 5.56728 15.1237 5.06918 14.8716 4.62314C14.6195 4.17711 14.2552 3.79692 13.8109 3.5163C13.3667 3.23567 12.8562 3.06327 12.3249 3.01439C11.7935 2.9655 11.2576 3.04164 10.7647 3.23606C10.2718 3.43047 9.83715 3.73715 9.49925 4.1289C9.16135 4.52066 8.93065 4.98539 8.82761 5.48188C8.72458 5.97838 8.75238 6.4913 8.90856 6.97517C9.06474 7.45904 9.34448 7.8989 9.72296 8.25577C8.14384 8.57628 6.7237 9.3894 5.68965 10.5651C4.6556 11.7408 4.06735 13.2112 4.01898 14.7412C3.7175 14.86 3.45986 15.0607 3.27853 15.318C3.09719 15.5753 3.00028 15.8778 3 16.1872V19.4353C3 19.8503 3.17393 20.2483 3.48352 20.5417C3.79312 20.8351 4.21302 21 4.65085 21H19.3491C19.787 21 20.2069 20.8351 20.5165 20.5417C20.8261 20.2483 21 19.8503 21 19.4353V16.1872C21.0001 15.8812 20.9055 15.5819 20.7279 15.3263C20.5503 15.0707 20.2976 14.8701 20.0009 14.7493ZM12.0085 4.07424C12.4258 4.07371 12.8339 4.1905 13.1811 4.40983C13.5283 4.62916 13.7991 4.94118 13.9591 5.30641C14.1192 5.67164 14.1614 6.07367 14.0803 6.46162C13.9993 6.84958 13.7986 7.20602 13.5038 7.48586C13.2089 7.7657 12.8331 7.95636 12.4239 8.03371C12.0147 8.11107 11.5905 8.07164 11.2049 7.92042C10.8194 7.76919 10.4898 7.51297 10.2579 7.18417C10.026 6.85537 9.90228 6.46877 9.90228 6.07328C9.9028 5.54351 10.1249 5.03554 10.5198 4.66068C10.9148 4.28582 11.4505 4.07465 12.0094 4.07344L12.0085 4.07424ZM11.2315 9.18111H12.7884C14.2633 9.1826 15.6874 9.69169 16.7959 10.6137C17.9045 11.5357 18.622 12.808 18.8152 14.1938C18.8224 14.2468 18.8177 14.3007 18.8013 14.3518C18.7849 14.4029 18.7573 14.4502 18.7202 14.4905C18.6831 14.5307 18.6375 14.5631 18.5862 14.5854C18.535 14.6077 18.4793 14.6194 18.423 14.6198H5.59412C5.53774 14.6194 5.48209 14.6077 5.43085 14.5854C5.37961 14.5631 5.33395 14.5307 5.29688 14.4905C5.25981 14.4502 5.23217 14.4029 5.2158 14.3518C5.19942 14.3007 5.19469 14.2468 5.2019 14.1938C5.39549 12.8076 6.11355 11.5351 7.22258 10.613C8.33162 9.69085 9.75619 9.18174 11.2315 9.1803V9.18111ZM19.8615 19.4353C19.8611 19.564 19.807 19.6873 19.711 19.7783C19.615 19.8693 19.4849 19.9205 19.3491 19.9209H4.65085C4.51498 19.9209 4.38466 19.8697 4.28858 19.7787C4.1925 19.6876 4.13852 19.5641 4.13852 19.4353V16.1872C4.13814 16.1232 4.15112 16.0598 4.1767 16.0005C4.20228 15.9413 4.23996 15.8875 4.28757 15.8421C4.33518 15.7967 4.39179 15.7607 4.45413 15.7361C4.51648 15.7115 4.58333 15.6989 4.65085 15.6989H19.3491C19.4854 15.6994 19.6158 15.7511 19.7118 15.8426C19.8079 15.9342 19.8617 16.0581 19.8615 16.1872V19.4353Z" fill="#F2F9FD"/>
<path id="Path 3403" d="M14.381 19H10.619C10.4549 19 10.2974 18.9384 10.1813 18.8287C10.0652 18.719 10 18.5703 10 18.4151V16.5849C10 16.4297 10.0652 16.281 10.1813 16.1713C10.2974 16.0616 10.4549 16 10.619 16H14.381C14.5451 16 14.7026 16.0616 14.8187 16.1713C14.9348 16.281 15 16.4297 15 16.5849V18.4151C15 18.5703 14.9348 18.719 14.8187 18.8287C14.7026 18.9384 14.5451 19 14.381 19ZM11.2381 17.8303H13.7619V17.1697H11.2381V17.8303Z" fill="#F2F9FD"/>
</g>
</svg>
