<svg width="24" height="24" viewBox="0 0 24 24" fill="none" xmlns="http://www.w3.org/2000/svg">
<g id="star-sharp_svgrepo.com">
<path id="Vector" d="M21 13.583C21 13.2641 20.949 12.9241 20.8125 12.6016C20.6772 12.2795 20.4552 11.9806 20.143 11.7566C19.869 11.559 19.3922 11.273 18.7911 10.9232C17.8916 10.401 16.7255 9.74986 15.6497 9.13005C15.1118 8.82112 14.5973 8.51905 14.1502 8.24742C13.7041 7.97546 13.3256 7.73178 13.0675 7.54417C12.5588 7.17536 12.1207 7.00158 11.7294 7C11.5292 6.99967 11.3428 7.0483 11.1809 7.14146C10.9366 7.28073 10.7587 7.51535 10.6515 7.77444C10.5427 8.03448 10.4965 8.32023 10.4959 8.60469C10.4959 9.5262 10.4959 9.85527 10.4959 10.1845C10.497 10.2918 10.505 10.37 10.5044 10.4252C10.5044 10.4735 10.4996 10.4976 10.497 10.5023L10.4917 10.5114C10.4826 10.5218 10.4444 10.5572 10.3377 10.5892C10.232 10.6212 10.0653 10.6457 9.82741 10.6454C8.6571 10.6454 6.42854 10.6454 5.87153 10.6454C5.57259 10.6454 5.34584 10.6024 5.16956 10.5434C4.90455 10.4528 4.74902 10.3304 4.60935 10.2097C4.53872 10.1488 4.47449 10.0861 4.39162 10.0246C4.34968 9.99424 4.30296 9.96351 4.24562 9.93809C4.18934 9.91362 4.12082 9.89543 4.04811 9.89543C3.91905 9.89414 3.79696 9.95341 3.704 10.0306C3.60898 10.1087 3.52984 10.2044 3.44276 10.3245C3.2622 10.5789 3.15919 10.8922 3.09229 11.2312C3.02654 11.5706 3 11.9407 3 12.3175C3 12.8237 3.04887 13.3425 3.1285 13.8073C3.19913 14.21 3.29099 14.5645 3.40834 14.853L3.51296 17H9.41067L9.5179 16.5537L10.7854 17H20.5242L20.5964 16.7202C20.6235 16.6152 20.6421 16.5032 20.658 16.3799C20.7058 16.0139 20.726 15.5525 20.7265 15.1924C20.726 15.0663 20.7228 14.9612 20.7164 14.8646C20.7849 14.7269 20.8433 14.5719 20.8906 14.3991C20.9575 14.1536 21 13.8763 21 13.583ZM20.031 15.9207C20.0235 16.0248 20.0134 16.1221 20.0034 16.2099H10.8825L9.06016 15.5682L8.90562 16.2099H4.14374L4.08798 15.0557H20.0564C20.0575 15.0983 20.058 15.1438 20.058 15.1924C20.058 15.4073 20.049 15.6761 20.031 15.9207ZM20.2539 14.1577C20.212 14.3142 20.1552 14.4459 20.1064 14.529H4.01471C3.93347 14.3336 3.84586 14.0137 3.78374 13.6493C3.71258 13.2371 3.6685 12.7635 3.6685 12.3175C3.6685 11.9859 3.69346 11.6692 3.74443 11.4079C3.79379 11.146 3.87293 10.9446 3.95361 10.8345C3.99608 10.7743 4.03061 10.7342 4.05504 10.7091C4.08267 10.7307 4.12141 10.764 4.16972 10.8076C4.29874 10.9227 4.49361 11.0895 4.77026 11.2169C5.04743 11.3458 5.40585 11.4355 5.87153 11.4355C6.42854 11.4355 8.6571 11.4355 9.82741 11.4355C10.0716 11.4349 10.2697 11.4145 10.4386 11.3721C10.5655 11.3408 10.6759 11.2962 10.7747 11.2341C10.9218 11.1435 11.0402 10.9989 11.1013 10.842C11.1634 10.6852 11.1729 10.5368 11.1729 10.4252C11.1724 10.311 11.1644 10.2235 11.165 10.1846C11.165 9.85527 11.165 9.52624 11.165 8.60473C11.1644 8.36293 11.2218 8.14338 11.3115 8.0091C11.3567 7.9404 11.4077 7.8899 11.4724 7.85227C11.5377 7.81526 11.6184 7.79018 11.7294 7.79018C11.944 7.7886 12.2758 7.89493 12.7171 8.21706C13.0962 8.49243 13.6606 8.84372 14.3175 9.23422C15.3024 9.81889 16.4903 10.4866 17.5257 11.0757C18.0429 11.3702 18.5224 11.645 18.9174 11.879C19.3114 12.1123 19.6242 12.3077 19.7941 12.4304C20.0049 12.5834 20.1318 12.7606 20.2141 12.9545C20.2959 13.148 20.3314 13.3638 20.3314 13.5831C20.332 13.7835 20.3012 13.9845 20.2539 14.1577ZM20.3586 14.7953V14.7922L20.3612 14.795L20.3586 14.7953Z" fill="#F2F9FD"/>
</g>
</svg>
