<svg width="24" height="24" viewBox="0 0 24 24" fill="none" xmlns="http://www.w3.org/2000/svg">
<g id="star-sharp_svgrepo.com">
<path id="Vector" d="M4 13.6334C3.999 14.9898 4.40524 16.32 5.1739 17.4773C5.94255 18.6347 7.04374 19.5741 8.35593 20.1919C9.66812 20.8098 11.1403 21.082 12.61 20.9786C14.0797 20.8751 15.4898 20.4001 16.6846 19.6058C17.8794 18.8116 18.8126 17.729 19.3811 16.4776C19.9496 15.2262 20.1313 13.8545 19.9061 12.5141C19.681 11.1736 19.0578 9.91649 18.1053 8.88136C17.1529 7.84623 15.9081 7.07337 14.5084 6.64807L15.4142 5.35162C15.5018 5.22653 15.5507 5.08182 15.5555 4.93308C15.5604 4.78433 15.5211 4.63719 15.4418 4.50749L14.7751 3.41716C14.6978 3.29057 14.5852 3.18521 14.449 3.11189C14.3128 3.03858 14.1578 2.99996 14 3H10C9.84219 2.99996 9.68722 3.03858 9.55099 3.11189C9.41477 3.18521 9.30222 3.29057 9.22489 3.41716L8.55822 4.50749C8.47894 4.63719 8.4396 4.78433 8.44446 4.93308C8.44931 5.08182 8.49817 5.22653 8.58578 5.35162L9.49156 6.64807C7.89521 7.13457 6.50574 8.07106 5.5201 9.32481C4.53445 10.5786 4.00263 12.086 4 13.6334ZM11.3618 6.29963L10.3707 4.88129L10.52 4.63591H13.48L13.6293 4.88129L12.6382 6.29963C12.416 6.28081 12.2044 6.27182 12 6.27182C11.7956 6.27182 11.584 6.28081 11.3618 6.29963ZM12 7.90772C13.2306 7.90772 14.4336 8.24353 15.4569 8.87267C16.4801 9.50182 17.2776 10.396 17.7486 11.4423C18.2195 12.4885 18.3427 13.6398 18.1027 14.7504C17.8626 15.8611 17.27 16.8813 16.3998 17.6821C15.5296 18.4828 14.4209 19.0281 13.2139 19.2491C12.0069 19.47 10.7558 19.3566 9.61886 18.9232C8.4819 18.4899 7.51012 17.756 6.82641 16.8144C6.14271 15.8728 5.77778 14.7658 5.77778 13.6334C5.78294 12.1163 6.44015 10.6627 7.60592 9.58998C8.7717 8.51723 10.3514 7.91247 12 7.90772Z" fill="#F2F9FD"/>
</g>
</svg>
